HIERARCHY
ROOT Hips
{
	OFFSET 0.000000 71.427986 0.000000
	CHANNELS 6 Xposition Yposition Zposition Xrotation Yrotation Zrotation
	JOINT Pelvis
	{
		OFFSET 0.000000 0.000000 0.000000
		CHANNELS 3 Xrotation Yrotation Zrotation
		JOINT LeftUpLeg
		{
			OFFSET 6.797100 -2.508499 -1.318700
			CHANNELS 3 Xrotation Yrotation Zrotation
			JOINT LeftLeg
			{
				OFFSET 0.069008 -29.241863 0.690200
				CHANNELS 3 Xrotation Yrotation Zrotation
				JOINT LeftFoot
				{
					OFFSET -0.069008 -29.568123 -0.266800
					CHANNELS 3 Xrotation Yrotation Zrotation
					JOINT LeftToeBase
					{
						OFFSET 3.145500 -8.631000 16.059900
						CHANNELS 3 Xrotation Yrotation Zrotation
						End Site
						{
							OFFSET 0.000000 18.501587 0.000000
						}
					}
				}
			}
			JOINT Left_ShortSleeve
			{
				OFFSET 0.265923 -10.480953 1.153800
				CHANNELS 3 Xrotation Yrotation Zrotation
				End Site
				{
					OFFSET 1.725763 19.823879 0.000000
				}
			}
		}
		JOINT RightUpLeg
		{
			OFFSET -6.797100 -2.508499 -1.318700
			CHANNELS 3 Xrotation Yrotation Zrotation
			JOINT RightLeg
			{
				OFFSET -0.082453 -29.241932 0.688000
				CHANNELS 3 Xrotation Yrotation Zrotation
				JOINT RightFoot
				{
					OFFSET 0.082453 -29.568058 -0.264600
					CHANNELS 3 Xrotation Yrotation Zrotation
					JOINT RightToeBase
					{
						OFFSET -3.115300 -8.682800 16.113400
						CHANNELS 3 Xrotation Yrotation Zrotation
						End Site
						{
							OFFSET 0.000000 18.567114 0.000000
						}
					}
				}
			}
			JOINT Right_ShortSleeve
			{
				OFFSET -0.265923 -10.480953 1.153800
				CHANNELS 3 Xrotation Yrotation Zrotation
				End Site
				{
					OFFSET -1.725766 19.823910 0.000000
				}
			}
		}
	}
	JOINT Spine
	{
		OFFSET 0.000000 13.368103 0.470500
		CHANNELS 3 Xrotation Yrotation Zrotation
		JOINT Spine1
		{
			OFFSET 0.147000 13.837402 0.538800
			CHANNELS 3 Xrotation Yrotation Zrotation
			JOINT Spine2
			{
				OFFSET 0.168000 16.242897 -1.435500
				CHANNELS 3 Xrotation Yrotation Zrotation
				JOINT Neck
				{
					OFFSET 0.217200 18.631500 -1.679100
					CHANNELS 3 Xrotation Yrotation Zrotation
					JOINT Head
					{
						OFFSET 0.000000 6.599396 1.385900
						CHANNELS 3 Xrotation Yrotation Zrotation
						JOINT Hat
						{
							OFFSET -0.532200 27.220596 -10.096100
							CHANNELS 3 Xrotation Yrotation Zrotation
							End Site
							{
								OFFSET 0.000000 22.029861 0.000000
							}
						}
						JOINT HairD
						{
							OFFSET -10.777400 17.437393 -1.325900
							CHANNELS 3 Xrotation Yrotation Zrotation
							JOINT HairD1
							{
								OFFSET -3.290299 -11.051193 1.062200
								CHANNELS 3 Xrotation Yrotation Zrotation
								End Site
								{
									OFFSET 0.000000 11.579437 0.000000
								}
							}
						}
						JOINT HairB
						{
							OFFSET -10.777400 17.437393 1.467900
							CHANNELS 3 Xrotation Yrotation Zrotation
							JOINT HairB1
							{
								OFFSET -1.561200 -12.956299 3.590200
								CHANNELS 3 Xrotation Yrotation Zrotation
								End Site
								{
									OFFSET 0.000000 13.534866 0.000000
								}
							}
						}
						JOINT HairA
						{
							OFFSET 9.713100 17.437393 1.467900
							CHANNELS 3 Xrotation Yrotation Zrotation
							JOINT HairA1
							{
								OFFSET 1.561200 -12.956299 3.590200
								CHANNELS 3 Xrotation Yrotation Zrotation
								End Site
								{
									OFFSET 0.000000 13.534866 0.000000
								}
							}
						}
						JOINT HairC
						{
							OFFSET 9.713100 17.437393 -1.325900
							CHANNELS 3 Xrotation Yrotation Zrotation
							JOINT HairC1
							{
								OFFSET 3.290300 -11.051193 1.062200
								CHANNELS 3 Xrotation Yrotation Zrotation
								End Site
								{
									OFFSET 0.000000 11.579437 0.000000
								}
							}
						}
					}
				}
				JOINT LeftShoulder
				{
					OFFSET 5.101800 15.108002 -2.763700
					CHANNELS 3 Xrotation Yrotation Zrotation
					JOINT LeftArm
					{
						OFFSET 9.825497 2.506317 -1.597400
						CHANNELS 3 Xrotation Yrotation Zrotation
						JOINT LeftForeArm
						{
							OFFSET 21.966244 0.000000 0.000000
							CHANNELS 3 Xrotation Yrotation Zrotation
							JOINT LeftHand
							{
								OFFSET 33.879036 0.000000 0.000000
								CHANNELS 3 Xrotation Yrotation Zrotation
								JOINT LeftHandThumb1
								{
									OFFSET 6.715286 -2.359680 3.363841
									CHANNELS 3 Xrotation Yrotation Zrotation
									JOINT LeftHandThumb2
									{
										OFFSET 2.507072 -1.447464 1.447461
										CHANNELS 3 Xrotation Yrotation Zrotation
										JOINT LeftHandThumb3
										{
											OFFSET 2.898338 -1.673355 1.673357
											CHANNELS 3 Xrotation Yrotation Zrotation
											End Site
											{
												OFFSET -0.295959 3.727692 -0.131651
											}
										}
									}
								}
								JOINT LeftHandIndex1
								{
									OFFSET 14.190811 -0.254547 3.840278
									CHANNELS 3 Xrotation Yrotation Zrotation
									JOINT LeftHandIndex2
									{
										OFFSET 3.551727 0.000000 -0.000000
										CHANNELS 3 Xrotation Yrotation Zrotation
										JOINT LeftHandIndex3
										{
											OFFSET 2.894196 0.000000 0.000000
											CHANNELS 3 Xrotation Yrotation Zrotation
											End Site
											{
												OFFSET -1.000603 2.690872 0.366626
											}
										}
									}
								}
								JOINT LeftHandMiddle1
								{
									OFFSET 13.776489 0.000000 0.000000
									CHANNELS 3 Xrotation Yrotation Zrotation
									JOINT LeftHandMiddle2
									{
										OFFSET 3.438232 0.000000 0.000000
										CHANNELS 3 Xrotation Yrotation Zrotation
										JOINT LeftHandMiddle3
										{
											OFFSET 3.691551 0.000000 0.000000
											CHANNELS 3 Xrotation Yrotation Zrotation
											End Site
											{
												OFFSET -1.082298 3.499527 0.457670
											}
										}
									}
								}
								JOINT LeftHandRing1
								{
									OFFSET 13.966164 -0.268127 -3.067488
									CHANNELS 3 Xrotation Yrotation Zrotation
									JOINT LeftHandRing2
									{
										OFFSET 3.162567 0.000000 0.000000
										CHANNELS 3 Xrotation Yrotation Zrotation
										JOINT LeftHandRing3
										{
											OFFSET 3.324348 0.000000 0.000000
											CHANNELS 3 Xrotation Yrotation Zrotation
											End Site
											{
												OFFSET -0.861900 3.184998 0.405154
											}
										}
									}
								}
								JOINT LeftHandPinky1
								{
									OFFSET 13.131393 -0.168503 -5.746925
									CHANNELS 3 Xrotation Yrotation Zrotation
									JOINT LeftHandPinky2
									{
										OFFSET 2.849182 0.000000 0.000000
										CHANNELS 3 Xrotation Yrotation Zrotation
										JOINT LeftHandPinky3
										{
											OFFSET 2.805038 0.000000 0.000000
											CHANNELS 3 Xrotation Yrotation Zrotation
											End Site
											{
												OFFSET -0.882500 2.642609 0.325652
											}
										}
									}
								}
							}
							JOINT Left_Sleeve
							{
								OFFSET 6.592125 -0.646545 0.805568
								CHANNELS 3 Xrotation Yrotation Zrotation
								End Site
								{
									OFFSET -0.000179 20.275787 -0.000000
								}
							}
						}
					}
				}
				JOINT RightShoulder
				{
					OFFSET -5.731700 15.108002 -2.763700
					CHANNELS 3 Xrotation Yrotation Zrotation
					JOINT RightArm
					{
						OFFSET -9.825497 2.506317 -1.597400
						CHANNELS 3 Xrotation Yrotation Zrotation
						JOINT RightForeArm
						{
							OFFSET -21.966242 0.000000 0.000000
							CHANNELS 3 Xrotation Yrotation Zrotation
							JOINT RightHand
							{
								OFFSET -33.879032 0.000000 0.000000
								CHANNELS 3 Xrotation Yrotation Zrotation
								JOINT RightHandThumb1
								{
									OFFSET -6.715286 -2.359680 3.363841
									CHANNELS 3 Xrotation Yrotation Zrotation
									JOINT RightHandThumb2
									{
										OFFSET -2.507072 -1.447464 1.447461
										CHANNELS 3 Xrotation Yrotation Zrotation
										JOINT RightHandThumb3
										{
											OFFSET -2.898338 -1.673355 1.673357
											CHANNELS 3 Xrotation Yrotation Zrotation
											End Site
											{
												OFFSET 0.295959 3.727692 -0.131651
											}
										}
									}
								}
								JOINT RightHandIndex1
								{
									OFFSET -14.190811 -0.254547 3.840278
									CHANNELS 3 Xrotation Yrotation Zrotation
									JOINT RightHandIndex2
									{
										OFFSET -3.551727 0.000000 -0.000000
										CHANNELS 3 Xrotation Yrotation Zrotation
										JOINT RightHandIndex3
										{
											OFFSET -2.894196 0.000000 0.000000
											CHANNELS 3 Xrotation Yrotation Zrotation
											End Site
											{
												OFFSET 1.000603 2.690872 0.366626
											}
										}
									}
								}
								JOINT RightHandMiddle1
								{
									OFFSET -13.776489 0.000000 0.000000
									CHANNELS 3 Xrotation Yrotation Zrotation
									JOINT RightHandMiddle2
									{
										OFFSET -3.438232 0.000000 0.000000
										CHANNELS 3 Xrotation Yrotation Zrotation
										JOINT RightHandMiddle3
										{
											OFFSET -3.691551 0.000000 0.000000
											CHANNELS 3 Xrotation Yrotation Zrotation
											End Site
											{
												OFFSET 1.082298 3.499527 0.457670
											}
										}
									}
								}
								JOINT RightHandRing1
								{
									OFFSET -13.966164 -0.268127 -3.067488
									CHANNELS 3 Xrotation Yrotation Zrotation
									JOINT RightHandRing2
									{
										OFFSET -3.162567 0.000000 0.000000
										CHANNELS 3 Xrotation Yrotation Zrotation
										JOINT RightHandRing3
										{
											OFFSET -3.324348 0.000000 0.000000
											CHANNELS 3 Xrotation Yrotation Zrotation
											End Site
											{
												OFFSET 0.861900 3.184998 0.405154
											}
										}
									}
								}
								JOINT RightHandPinky1
								{
									OFFSET -13.131393 -0.168503 -5.746925
									CHANNELS 3 Xrotation Yrotation Zrotation
									JOINT RightHandPinky2
									{
										OFFSET -2.849182 0.000000 0.000000
										CHANNELS 3 Xrotation Yrotation Zrotation
										JOINT RightHandPinky3
										{
											OFFSET -2.805038 0.000000 0.000000
											CHANNELS 3 Xrotation Yrotation Zrotation
											End Site
											{
												OFFSET 0.882500 2.642609 0.325652
											}
										}
									}
								}
							}
							JOINT Right_Sleeve
							{
								OFFSET -6.592125 -0.646545 0.805568
								CHANNELS 3 Xrotation Yrotation Zrotation
								End Site
								{
									OFFSET 0.000179 20.275787 -0.000000
								}
							}
						}
					}
				}
				JOINT Bind_Right_JacketString
				{
					OFFSET -3.534800 11.969597 7.200700
					CHANNELS 3 Xrotation Yrotation Zrotation
					JOINT Bind_Right_JacketString1
					{
						OFFSET -0.319900 -6.102600 2.794100
						CHANNELS 3 Xrotation Yrotation Zrotation
						End Site
						{
							OFFSET 0.000000 6.719452 0.000000
						}
					}
				}
				JOINT Bind_Left_JacketString
				{
					OFFSET 2.904800 11.969597 7.200700
					CHANNELS 3 Xrotation Yrotation Zrotation
					JOINT Bind_Left_JacketString1
					{
						OFFSET 0.364800 -5.904503 3.186800
						CHANNELS 3 Xrotation Yrotation Zrotation
						End Site
						{
							OFFSET 0.000000 6.719513 0.000000
						}
					}
				}
				JOINT HairE
				{
					OFFSET 5.915200 17.612701 -11.592200
					CHANNELS 3 Xrotation Yrotation Zrotation
					JOINT HairE1
					{
						OFFSET 0.289200 -7.171898 -1.284500
						CHANNELS 3 Xrotation Yrotation Zrotation
						End Site
						{
							OFFSET 0.000000 7.291756 0.000000
						}
					}
				}
				JOINT HairF
				{
					OFFSET -0.864800 17.612701 -11.592200
					CHANNELS 3 Xrotation Yrotation Zrotation
					JOINT HairF1
					{
						OFFSET 0.000000 -14.087097 -2.127501
						CHANNELS 3 Xrotation Yrotation Zrotation
						End Site
						{
							OFFSET 0.000000 14.246841 0.000000
						}
					}
				}
				JOINT HairG
				{
					OFFSET -8.087700 17.612701 -11.592200
					CHANNELS 3 Xrotation Yrotation Zrotation
					JOINT HairG1
					{
						OFFSET -0.293600 -6.081398 -0.910100
						CHANNELS 3 Xrotation Yrotation Zrotation
						End Site
						{
							OFFSET 0.000000 6.156120 0.000000
						}
					}
				}
			}
		}
	}
	JOINT Pouch
	{
		OFFSET 0.000000 4.394501 10.847300
		CHANNELS 3 Xrotation Yrotation Zrotation
		End Site
		{
			OFFSET 0.000000 21.880577 0.000000
		}
	}
	JOINT Bag
	{
		OFFSET -13.229000 4.813004 -0.593300
		CHANNELS 3 Xrotation Yrotation Zrotation
		End Site
		{
			OFFSET 0.000000 21.880577 0.000000
		}
	}
	JOINT OccupyGuyFacialAnim_Joint
	{
		OFFSET 1.000000 -70.206398 -1.655000
		CHANNELS 3 Xrotation Yrotation Zrotation
		End Site
		{
			OFFSET 0.000000 21.880577 0.000000
		}
	}
}
MOTION
Frames: 4
Frame Time: 0.033333
-9.265785 43.474667 3.696882 141.503720 -26.961243 152.874906 0.000003 -0.000001 0.000001 -101.813443 -12.371662 15.785756 109.760109 -9.129558 0.684778 -40.629251 1.611993 -5.714039 0.000000 -0.000000 0.000000 -0.000001 -0.000000 0.000000 -103.819073 1.950708 -39.989361 105.865610 12.474437 -3.265312 -12.620033 -5.585883 18.140361 -0.000000 0.000000 0.000000 0.000001 0.000000 -0.000000 -1.513078 -0.872359 -1.873275 6.557732 -1.041047 -3.717245 6.623474 -1.208025 -3.779313 0.273115 27.629749 -9.626253 -38.810159 23.310346 5.039764 0.000000 0.000000 -0.000000 0.000000 0.000000 -0.000000 0.000000 0.000000 0.000000 0.000000 0.000000 -0.000000 0.000000 0.000000 0.000001 0.000000 0.000000 -0.000000 0.000000 0.000000 0.000001 0.000000 0.000000 -0.000000 0.000000 0.000000 -0.000000 10.954731 -5.382024 -9.088155 -76.845147 -3.788181 -28.208717 30.165797 -14.550576 10.350772 10.849870 -10.764142 11.351567 40.109924 -15.297119 -0.360530 5.639815 28.097959 11.338787 -0.000003 -0.000001 -0.000001 6.882140 2.840160 -61.140500 8.248003 7.639996 -89.898007 0.000002 0.000001 0.000003 -2.345544 4.688889 -62.655299 8.754069 9.897128 -87.051362 -0.000000 0.000001 0.000001 -9.042502 10.045709 -60.766164 8.524083 9.508787 -66.893227 0.000001 -0.000000 -0.000000 -17.946927 14.755135 -51.486000 8.857220 8.678410 -84.811757 -0.000002 -0.000001 -0.000001 -0.000002 -0.000001 0.000001 9.541222 16.028769 26.657523 -3.985974 -1.663913 21.316570 -13.552179 45.398782 8.442564 9.321058 11.714149 -24.078247 -1.417101 -6.319351 11.992695 -0.919528 -15.684814 -8.742719 0.000000 -0.000001 -0.000001 -0.122482 0.596857 18.958536 0.046195 -0.074336 24.112671 -0.000001 -0.000001 -0.000003 0.812363 -6.882737 21.157896 2.282983 -4.668137 46.609911 -0.000001 -0.000000 0.000001 2.279319 -13.629365 23.068873 2.680724 -4.103126 49.942483 0.000000 -0.000001 0.000001 4.494284 -22.086829 31.689534 4.181262 -2.022649 40.416408 0.000000 -0.000001 0.000000 0.000000 0.000001 -0.000001 -0.000003 0.000000 0.000002 -0.000000 -0.000002 -0.000001 -0.000003 0.000000 0.000001 -0.000003 0.000000 0.000001 -0.000003 0.000000 0.000002 -0.000000 -0.000002 -0.000001 -0.000003 0.000000 0.000001 -0.000003 0.000000 0.000001 -0.000003 0.000000 0.000002 -0.000000 -0.000002 -0.000001 0.000003 -0.000001 0.000001 0.000003 -0.000001 0.000001 0.000003 -0.000001 0.000001 
-8.251425 42.593010 3.512505 142.966064 -26.518585 154.708730 -0.000003 0.000000 0.000001 -101.847478 -13.142316 17.882823 111.042231 -10.297565 0.600425 -40.332595 1.842497 -6.539306 -0.000000 -0.000000 -0.000000 0.000001 0.000000 -0.000001 -104.841450 1.698864 -39.173109 108.056195 11.610104 -3.232789 -16.438911 -4.765130 15.587561 -0.000000 -0.000000 -0.000000 -0.000000 0.000001 -0.000000 -1.094482 -0.805861 -2.460656 6.699607 -1.131859 -3.800630 6.764283 -1.319692 -3.850996 -0.847967 28.059758 -8.983480 -37.926849 23.965059 5.312239 0.000000 0.000000 -0.000001 0.000000 0.000000 -0.000001 0.000000 0.000000 -0.000001 0.000000 0.000000 -0.000001 0.000000 -0.000000 -0.000000 0.000000 0.000000 -0.000001 0.000000 -0.000000 -0.000000 0.000000 0.000000 -0.000001 0.000000 0.000000 -0.000001 10.776345 -5.489055 -8.633067 -76.402359 -4.678149 -27.832842 30.978661 -15.255805 11.054212 10.182105 -10.428924 9.101842 40.109927 -15.297120 -0.360529 5.639812 28.097962 11.338789 0.000001 0.000001 0.000001 6.882140 2.840160 -61.140507 8.248002 7.639997 -89.898007 0.000001 0.000000 0.000003 -2.345544 4.688889 -62.655299 8.754069 9.897131 -87.051362 0.000000 0.000000 0.000001 -9.042505 10.045708 -60.766171 8.524084 9.508788 -66.893233 -0.000001 0.000000 -0.000004 -17.946925 14.755136 -51.485993 8.857219 8.678410 -84.811757 -0.000003 0.000000 -0.000004 -0.000000 -0.000001 0.000001 9.336221 15.958385 26.540139 -0.196263 -0.664936 21.893541 -12.476003 42.599668 7.759887 6.201979 9.740501 -21.122966 -1.394775 -6.323930 12.026153 -0.695378 -16.543329 -8.920003 -0.000002 -0.000005 0.000001 -0.121394 0.597568 17.866313 0.043741 -0.075269 23.041590 0.000001 -0.000001 0.000000 0.802536 -6.903249 20.074471 2.289396 -4.680361 45.629854 0.000000 0.000000 -0.000001 2.264244 -13.670305 21.993305 2.689668 -4.113236 48.976373 -0.000000 0.000000 -0.000003 4.485721 -22.151688 30.648097 4.192111 -2.029642 39.412029 -0.000002 -0.000000 0.000002 0.000002 0.000002 0.000001 0.000003 0.000002 -0.000000 0.000001 0.000002 -0.000004 0.000003 0.000002 0.000001 0.000003 0.000002 0.000001 0.000003 0.000002 -0.000000 0.000001 0.000002 -0.000003 0.000003 0.000002 0.000001 0.000003 0.000002 0.000001 0.000003 0.000002 -0.000000 0.000001 0.000002 -0.000003 -0.000003 0.000000 0.000001 -0.000003 0.000000 0.000001 -0.000003 0.000000 0.000001 
-7.179171 41.609806 3.323822 144.538742 -26.179891 156.169420 -0.000000 0.000000 0.000001 -101.998193 -14.353149 20.301638 112.421813 -11.833929 0.498186 -39.789281 1.760591 -7.225463 0.000000 -0.000002 -0.000000 -0.000002 -0.000000 -0.000002 -105.446243 1.168668 -38.072926 110.333448 10.688735 -3.201759 -20.454417 -4.238983 13.417212 -0.000001 0.000000 0.000000 -0.000000 0.000000 -0.000001 -0.569826 -0.725133 -2.625534 6.871125 -1.185223 -3.794430 6.938240 -1.372707 -3.842392 -1.477557 28.504181 -8.554544 -37.147794 24.673896 5.464507 0.000000 -0.000000 -0.000001 0.000000 -0.000000 -0.000001 0.000000 -0.000000 -0.000001 0.000000 -0.000000 -0.000001 0.000000 0.000000 -0.000000 0.000000 -0.000000 -0.000001 0.000000 0.000000 -0.000000 0.000000 -0.000000 -0.000001 0.000000 -0.000000 -0.000001 10.585909 -5.640341 -8.316082 -76.051616 -5.730774 -27.610903 31.795490 -15.546627 11.652990 9.385608 -10.292217 6.856872 40.109927 -15.297120 -0.360530 5.639821 28.097959 11.338787 -0.000004 -0.000001 0.000001 6.882140 2.840160 -61.140500 8.248002 7.639993 -89.898007 0.000001 0.000000 -0.000002 -2.345544 4.688889 -62.655299 8.754069 9.897127 -87.051362 0.000001 0.000001 0.000001 -9.042500 10.045709 -60.766164 8.524083 9.508787 -66.893220 -0.000001 0.000002 -0.000001 -17.946921 14.755138 -51.486004 8.857222 8.678408 -84.811757 -0.000001 -0.000001 -0.000004 0.000001 0.000001 -0.000004 9.116410 15.864984 26.318573 3.814291 -0.486838 22.177505 -11.741811 40.689291 7.497627 3.137877 6.762727 -18.150497 -1.409924 -6.321133 12.003340 -0.428564 -17.412179 -9.046357 -0.000001 -0.000006 -0.000001 -0.119146 0.596213 16.477570 0.041120 -0.076380 21.638818 -0.000000 -0.000002 -0.000000 0.767910 -6.880163 18.679179 2.253160 -4.674936 44.164150 0.000000 -0.000003 -0.000001 2.191586 -13.627539 20.590039 2.655296 -4.112828 47.501801 -0.000002 -0.000000 -0.000004 4.351600 -22.088840 29.211534 4.164837 -2.044471 37.964626 -0.000000 0.000001 0.000001 0.000001 -0.000000 0.000000 -0.000000 0.000001 -0.000001 -0.000001 0.000001 -0.000002 -0.000000 0.000001 -0.000002 -0.000000 0.000001 -0.000002 -0.000000 0.000001 -0.000001 -0.000001 0.000001 -0.000002 -0.000000 0.000001 -0.000002 -0.000000 0.000001 -0.000002 -0.000000 0.000001 -0.000001 -0.000001 0.000001 -0.000002 -0.000000 0.000000 0.000001 -0.000000 0.000000 0.000001 -0.000000 0.000000 0.000001 
-6.060038 40.528667 3.107737 146.161390 -25.943721 157.111549 -0.000003 -0.000001 0.000001 -102.336315 -16.149984 23.032757 113.866548 -13.757442 0.386773 -38.945414 1.340072 -7.761440 0.000000 0.000001 0.000000 0.000000 -0.000002 -0.000001 -106.175639 0.683591 -36.806766 112.979757 9.752452 -3.150975 -23.300504 -3.914667 11.761348 0.000001 0.000000 -0.000000 -0.000001 0.000000 -0.000001 0.031559 -0.635015 -2.398118 7.070390 -1.187269 -3.643701 7.141762 -1.351323 -3.698820 -1.235518 28.919175 -8.578617 -36.645871 25.463546 5.369994 -0.000000 0.000000 -0.000000 -0.000000 0.000000 -0.000000 -0.000000 0.000000 0.000000 -0.000000 0.000000 -0.000000 -0.000000 0.000000 0.000001 -0.000000 0.000000 -0.000000 -0.000000 0.000000 0.000001 -0.000000 0.000000 -0.000000 -0.000000 0.000000 -0.000000 10.410697 -5.802196 -8.101115 -75.695749 -6.681215 -27.667242 32.677613 -15.889139 12.438945 8.502524 -10.124321 4.613434 40.109920 -15.297124 -0.360536 5.639813 28.097959 11.338785 -0.000003 -0.000000 0.000000 6.882139 2.840160 -61.140500 8.248002 7.639995 -89.898007 0.000001 -0.000001 0.000001 -2.345545 4.688890 -62.655292 8.754069 9.897127 -87.051362 -0.000000 0.000000 -0.000003 -9.042503 10.045709 -60.766164 8.524082 9.508787 -66.893227 -0.000001 0.000000 -0.000001 -17.946920 14.755140 -51.486000 8.857219 8.678407 -84.811750 -0.000001 0.000001 -0.000000 0.000001 -0.000000 0.000001 8.860209 15.793197 26.089823 7.458620 -1.137912 22.356761 -10.523505 39.207857 6.833799 0.569817 3.313615 -15.525245 -1.459797 -6.309030 11.934619 -0.128087 -18.282559 -9.127271 -0.000001 0.000000 0.000001 -0.115564 0.593203 14.859775 0.038913 -0.077617 19.975908 0.000000 0.000001 0.000000 0.716355 -6.821578 17.041057 2.184260 -4.653964 42.310584 0.000005 -0.000001 0.000001 2.078728 -13.516077 18.931346 2.587196 -4.102739 45.620486 -0.000001 0.000001 -0.000003 4.126384 -21.920495 27.465406 4.107465 -2.063918 36.164626 0.000003 -0.000000 0.000000 0.000002 -0.000000 -0.000002 -0.000000 0.000000 0.000001 0.000001 0.000002 -0.000001 -0.000000 0.000000 -0.000000 -0.000000 0.000000 -0.000000 -0.000000 0.000000 0.000001 0.000001 0.000002 -0.000001 -0.000000 0.000000 -0.000000 -0.000000 0.000000 -0.000000 -0.000000 0.000000 0.000001 0.000001 0.000002 -0.000001 -0.000003 -0.000001 0.000001 -0.000003 -0.000001 0.000001 -0.000003 -0.000001 0.000001 
